<svg width="190" height="50" viewBox="0 0 190 50" fill="none" xmlns="http://www.w3.org/2000/svg">
<path d="M0 41.183V10.1684H12.9607C16.3563 10.1684 19.3274 10.833 21.874 12.1622C24.451 13.4618 26.452 15.2784 27.8769 17.6119C29.3018 19.9454 30.0142 22.6333 30.0142 25.6757C30.0142 28.7181 29.3018 31.406 27.8769 33.7395C26.452 36.073 24.451 37.9043 21.874 39.2335C19.3274 40.5332 16.3563 41.183 12.9607 41.183H0ZM3.36523 38.3474H12.7788C15.5983 38.3474 18.0389 37.8157 20.1005 36.7523C22.1924 35.6594 23.8143 34.1678 24.9664 32.2774C26.1185 30.3574 26.6945 28.1568 26.6945 25.6757C26.6945 23.165 26.1185 20.9644 24.9664 19.074C23.8143 17.1836 22.1924 15.7067 20.1005 14.6433C18.0389 13.5504 15.5983 13.004 12.7788 13.004H3.36523V38.3474Z" fill="white"/>
<path d="M47.0301 41.4045C44.5441 41.4045 42.3613 40.9024 40.4816 39.8981C38.6019 38.8643 37.1315 37.4612 36.0704 35.689C35.0093 33.8872 34.4787 31.8343 34.4787 29.5304C34.4787 27.2264 34.979 25.1883 35.9794 23.416C37.0102 21.6438 38.4048 20.2555 40.1632 19.2512C41.952 18.2174 43.9529 17.7005 46.1661 17.7005C48.4096 17.7005 50.3954 18.2026 52.1235 19.2069C53.8819 20.1817 55.2613 21.5699 56.2618 23.3717C57.2623 25.144 57.7625 27.1969 57.7625 29.5304C57.7625 29.678 57.7473 29.8405 57.717 30.0177C57.717 30.1654 57.717 30.3279 57.717 30.5051H43.1076L46.1661 28.1568H55.9889L54.7156 29.0873C54.7156 27.4036 54.3366 25.912 53.5787 24.6123C52.8511 23.2831 51.8506 22.2493 50.5773 21.5109C49.3039 20.7724 47.8335 20.4032 46.1661 20.4032C44.5289 20.4032 43.0586 20.7724 41.7549 21.5109C40.4513 22.2493 39.4356 23.2831 38.708 24.6123C37.9804 25.9415 37.6166 27.4627 37.6166 29.1759V29.6633C37.6166 31.4355 38.0107 33.001 38.799 34.3598C39.6175 35.689 40.7393 36.7376 42.1642 37.5055C43.6194 38.244 45.2717 38.6132 47.1211 38.6132C48.5763 38.6132 49.9255 38.3621 51.1685 37.86C52.4418 37.3579 53.5332 36.5899 54.4427 35.556L56.2618 37.5942C55.2007 38.8347 53.8667 39.7799 52.2599 40.4298C50.6834 41.0796 48.9401 41.4045 47.0301 41.4045Z" fill="white"/>
<path d="M64.3345 41.183V5.53833L67.5633 0V41.183H64.3345Z" fill="white"/>
<path d="M77.2295 41.183V0L80.5947 5.53833V38.3474H98.4214V41.183H77.2295Z" fill="white"/>
<path d="M103.327 41.183V17.922H106.556V41.183H103.327ZM104.964 12.7825C104.297 12.7825 103.736 12.5609 103.281 12.1179C102.827 11.6748 102.599 11.1431 102.599 10.5228C102.599 9.90252 102.827 9.38562 103.281 8.97209C103.736 8.52902 104.297 8.30749 104.964 8.30749C105.631 8.30749 106.192 8.51425 106.647 8.92778C107.101 9.34131 107.329 9.85822 107.329 10.4785C107.329 11.1283 107.101 11.6748 106.647 12.1179C106.222 12.5609 105.661 12.7825 104.964 12.7825Z" fill="white"/>
<path d="M125.726 50C123.543 50 121.451 49.6899 119.451 49.0696C117.45 48.4493 115.828 47.5631 114.585 46.4112L116.222 44.0186C117.343 44.9934 118.723 45.7613 120.36 46.3226C122.028 46.9133 123.786 47.2087 125.635 47.2087C128.667 47.2087 130.895 46.5145 132.32 45.1263C133.745 43.7675 134.458 41.6408 134.458 38.7461V32.942L134.912 28.9544L134.594 24.9668V17.922H137.686V38.3474C137.686 42.3645 136.671 45.3035 134.64 47.1644C132.639 49.0548 129.667 50 125.726 50ZM125.135 40.2969C122.861 40.2969 120.815 39.8242 118.996 38.879C117.177 37.9043 115.737 36.5603 114.676 34.8471C113.645 33.134 113.129 31.1697 113.129 28.9544C113.129 26.739 113.645 24.7895 114.676 23.1059C115.737 21.3927 117.177 20.0635 118.996 19.1183C120.815 18.1731 122.861 17.7005 125.135 17.7005C127.257 17.7005 129.167 18.1288 130.865 18.9854C132.563 19.842 133.912 21.1121 134.912 22.7957C135.913 24.4794 136.413 26.5323 136.413 28.9544C136.413 31.3765 135.913 33.4293 134.912 35.113C133.912 36.7966 132.563 38.0815 130.865 38.9677C129.167 39.8538 127.257 40.2969 125.135 40.2969ZM125.453 37.5055C127.212 37.5055 128.773 37.1511 130.137 36.4422C131.502 35.7037 132.578 34.6995 133.366 33.4293C134.154 32.1297 134.549 30.638 134.549 28.9544C134.549 27.2707 134.154 25.7938 133.366 24.5237C132.578 23.2536 131.502 22.2641 130.137 21.5552C128.773 20.8167 127.212 20.4475 125.453 20.4475C123.725 20.4475 122.164 20.8167 120.769 21.5552C119.405 22.2641 118.329 23.2536 117.541 24.5237C116.783 25.7938 116.404 27.2707 116.404 28.9544C116.404 30.638 116.783 32.1297 117.541 33.4293C118.329 34.6995 119.405 35.7037 120.769 36.4422C122.164 37.1511 123.725 37.5055 125.453 37.5055Z" fill="white"/>
<path d="M158.859 17.7005C160.799 17.7005 162.497 18.0697 163.952 18.8082C165.438 19.5171 166.59 20.61 167.408 22.0868C168.257 23.5637 168.682 25.4246 168.682 27.6695V41.183H165.453V27.9796C165.453 25.528 164.816 23.6819 163.543 22.4413C162.3 21.1712 160.541 20.5361 158.268 20.5361C156.57 20.5361 155.084 20.8758 153.811 21.5552C152.568 22.205 151.598 23.165 150.9 24.4351C150.234 25.6757 149.9 27.1821 149.9 28.9544V41.183H146.671V0L149.9 5.53833V24.3022L149.263 23.1059C150.021 21.4222 151.234 20.1078 152.901 19.1626C154.569 18.1879 156.555 17.7005 158.859 17.7005Z" fill="white"/>
<path d="M184.952 41.4045C182.709 41.4045 180.981 40.8138 179.768 39.6323C178.555 38.4507 177.949 36.7819 177.949 34.6256V12.7825H181.178V34.4484C181.178 35.8071 181.526 36.8557 182.224 37.5942C182.951 38.3326 183.982 38.7018 185.316 38.7018C186.741 38.7018 187.923 38.3031 188.863 37.5055L190 39.7652C189.363 40.3264 188.59 40.7399 187.681 41.0058C186.802 41.2716 185.892 41.4045 184.952 41.4045ZM173.674 20.5361V17.922H185.316V20.4475L173.674 20.5361Z" fill="white"/>
</svg>
